<svg width="22" height="22" viewBox="0 0 22 22" fill="none" xmlns="http://www.w3.org/2000/svg">
<path d="M0 0.628571C0 0.281421 0.281421 0 0.628571 0H5.02857C5.37572 0 5.65714 0.281421 5.65714 0.628571V5.02857C5.65714 5.37572 5.37572 5.65714 5.02857 5.65714H0.628571C0.281421 5.65714 0 5.37572 0 5.02857V0.628571Z" fill="white"/>
<path d="M0 8.8C0 8.45285 0.281421 8.17143 0.628571 8.17143H5.02857C5.37572 8.17143 5.65714 8.45285 5.65714 8.8V13.2C5.65714 13.5472 5.37572 13.8286 5.02857 13.8286H0.628571C0.281421 13.8286 0 13.5472 0 13.2V8.8Z" fill="white"/>
<path d="M0.628571 16.3429C0.281421 16.3429 0 16.6243 0 16.9714V21.3714C0 21.7186 0.281421 22 0.628571 22H5.02857C5.37572 22 5.65714 21.7186 5.65714 21.3714V16.9714C5.65714 16.6243 5.37572 16.3429 5.02857 16.3429H0.628571Z" fill="white"/>
<path d="M8.17143 0.628571C8.17143 0.281421 8.45285 0 8.8 0H13.2C13.5472 0 13.8286 0.281421 13.8286 0.628571V5.02857C13.8286 5.37572 13.5472 5.65714 13.2 5.65714H8.8C8.45285 5.65714 8.17143 5.37572 8.17143 5.02857V0.628571Z" fill="white"/>
<path d="M8.8 8.17143C8.45285 8.17143 8.17143 8.45285 8.17143 8.8V13.2C8.17143 13.5472 8.45285 13.8286 8.8 13.8286H13.2C13.5472 13.8286 13.8286 13.5472 13.8286 13.2V8.8C13.8286 8.45285 13.5472 8.17143 13.2 8.17143H8.8Z" fill="white"/>
<path d="M8.17143 16.9714C8.17143 16.6243 8.45285 16.3429 8.8 16.3429H13.2C13.5472 16.3429 13.8286 16.6243 13.8286 16.9714V21.3714C13.8286 21.7186 13.5472 22 13.2 22H8.8C8.45285 22 8.17143 21.7186 8.17143 21.3714V16.9714Z" fill="white"/>
<path d="M16.9714 0C16.6243 0 16.3429 0.281421 16.3429 0.628571V5.02857C16.3429 5.37572 16.6243 5.65714 16.9714 5.65714H21.3714C21.7186 5.65714 22 5.37572 22 5.02857V0.628571C22 0.281421 21.7186 0 21.3714 0H16.9714Z" fill="white"/>
<path d="M16.3429 8.8C16.3429 8.45285 16.6243 8.17143 16.9714 8.17143H21.3714C21.7186 8.17143 22 8.45285 22 8.8V13.2C22 13.5472 21.7186 13.8286 21.3714 13.8286H16.9714C16.6243 13.8286 16.3429 13.5472 16.3429 13.2V8.8Z" fill="white"/>
<path d="M16.9714 16.3429C16.6243 16.3429 16.3429 16.6243 16.3429 16.9714V21.3714C16.3429 21.7186 16.6243 22 16.9714 22H21.3714C21.7186 22 22 21.7186 22 21.3714V16.9714C22 16.6243 21.7186 16.3429 21.3714 16.3429H16.9714Z" fill="white"/>
</svg>
